<?xml version="1.0" encoding="UTF-8"?><svg id="a" xmlns="http://www.w3.org/2000/svg" width="1000" height="1000" viewBox="0 0 1000 1000"><rect width="1000" height="1000"/><circle cx="500" cy="500" r="375" fill="#e8466c"/><path d="M711.09,568.47c0,37.28-30.22,67.5-67.5,67.5-9.54,0-18.61-1.98-26.84-5.55-23.92-10.37-40.66-34.21-40.66-61.95v-241.87c0-4.81-1.97-9.19-5.14-12.36-3.17-3.17-7.55-5.14-12.36-5.14-9.62,0-17.5,7.87-17.5,17.5v284.37c0,.47-.01.94-.04,1.41v6.23c-.08,37.22-30.27,67.36-67.5,67.36-6.04,0-11.89-.79-17.45-2.28-28.09-7.49-48.96-32.65-50-62.85v-194.24c0-.43-.02-.86-.05-1.28-.31-4.3-2.2-8.19-5.09-11.08-3.17-3.17-7.55-5.14-12.36-5.14-9.62,0-17.5,7.87-17.5,17.5v284.37c0,13.75-11.25,25-25,25s-25-11.25-25-25v-284.37c.08-37.22,30.27-67.36,67.5-67.36,6.03,0,11.88.79,17.45,2.29,28.09,7.48,48.96,32.64,50,62.84v194.24c0,.43.02.86.05,1.28.31,4.3,2.2,8.19,5.09,11.08,3.17,3.17,7.55,5.14,12.36,5.14,9.62,0,17.5-7.87,17.5-17.5v-284.37c0-.47,0-.94.04-1.41v-6.23c.08-37.22,30.27-67.36,67.5-67.36s67.42,30.14,67.5,67.36v176.66c5.58-1.49,11.45-2.29,17.5-2.29,37.28,0,67.5,30.22,67.5,67.5Z" fill="#fff"/></svg>