<?xml version="1.0" encoding="UTF-8"?><svg id="a" xmlns="http://www.w3.org/2000/svg" width="1145.75" height="1274.13" viewBox="0 0 1145.75 1274.13"><path d="M564.74,1169.08c0,14.87-2.79,28.11-8.37,39.73-5.57,11.62-13.55,20.68-23.93,27.19-10.38,6.5-22.7,9.76-36.95,9.76-13.01,0-24.71-2.78-35.09-8.37-10.38-5.57-18.59-13.54-24.63-23.93-6.04-10.38-9.07-22.85-9.07-37.42v-155.22h-27.88v157.54c0,19.52,4.18,36.33,12.55,50.43,8.37,14.11,19.59,25.02,33.69,32.76,14.1,7.74,29.51,11.62,46.24,11.62,19.52,0,36.4-4.87,50.66-14.64,9.62-6.59,17.1-14.76,22.77-24.24v33.31h27.88v-246.77h-27.88v148.25Z"/><path d="M826.82,1031.98c-18.28-11.15-39.04-16.72-62.27-16.72s-42.69,5.34-60.18,16.03c-14.88,9.08-26.61,20.96-35.55,35.31v-150.8h-27.88v351.81h27.88v-47.62c8.52,15.08,20.08,27.43,35.09,36.7,17.81,10.99,38.03,16.49,60.65,16.49s43.99-5.65,62.27-16.96c18.27-11.3,32.68-26.72,43.22-46.24,10.53-19.51,15.8-41.51,15.8-65.99s-5.27-46.47-15.8-66c-10.54-19.51-24.95-34.85-43.22-46.01ZM844.01,1195.8c-8.06,15.33-19.05,27.42-32.99,36.24-13.94,8.84-29.75,13.25-47.4,13.25s-33.62-4.41-47.87-13.25c-14.25-8.83-25.56-20.91-33.92-36.24-8.37-15.34-12.55-32.61-12.55-51.82s4.18-36.4,12.55-51.59c8.37-15.17,19.67-27.19,33.92-36.01,14.25-8.84,30.21-13.25,47.87-13.25s33.46,4.41,47.4,13.25c13.94,8.83,24.94,20.84,32.99,36.01,8.06,15.18,12.08,32.38,12.08,51.59s-4.03,36.48-12.08,51.82Z"/><path d="M305.37,1030.56c-13.79-7.75-28.89-11.62-45.31-11.62-1.32,0-2.57.23-3.88.28-1.44-.06-2.83-.28-4.29-.28-19.2,0-36.72,5.5-52.52,16.49-9.73,6.78-17.51,15.03-23.56,24.59-6.06-9.56-13.83-17.82-23.56-24.59-15.8-10.99-33.31-16.49-52.52-16.49-1.46,0-2.85.22-4.29.28-1.31-.05-2.55-.28-3.88-.28-16.42,0-31.52,3.87-45.31,11.62-13.78,7.75-24.94,18.51-33.46,32.29-8.52,13.79-12.78,29.51-12.78,47.17v161.26h27.88v-153.36c0-14.88,3.02-27.66,9.06-38.35,6.04-10.69,14.02-18.9,23.94-24.63,9.92-5.73,21.07-8.6,33.46-8.6,13.33,0,25.02,3.25,35.09,9.76,10.07,6.5,17.97,15.5,23.7,26.95,5.74,11.47,8.6,24.64,8.6,39.51v148.71h28.15v-148.71c0-14.87,2.86-28.04,8.6-39.51,5.73-11.45,13.63-20.44,23.7-26.95,10.07-6.5,21.76-9.76,35.09-9.76,12.39,0,23.54,2.87,33.46,8.6,9.91,5.73,17.89,13.94,23.94,24.63,6.04,10.69,9.06,23.47,9.06,38.35v153.36h27.88v-161.26c0-17.66-4.26-33.38-12.78-47.17-8.53-13.78-19.68-24.54-33.46-32.29Z"/><path d="M1114.82,1054.45c-9.93-10.84-21.69-19.31-35.28-25.43-13.59-6.11-28.79-9.16-45.58-9.16-21.99,0-41.85,5.5-59.56,16.49-17.72,11-31.77,26.04-42.15,45.13-10.39,19.09-15.58,40.7-15.58,64.83s5.34,45.89,16.04,65.28c10.69,19.4,25.2,34.67,43.52,45.81,18.32,11.15,38.94,16.72,61.85,16.72,15.58,0,30.01-2.6,43.29-7.79,13.29-5.19,24.97-12.29,35.05-21.3,10.08-9,17.87-19.16,23.36-30.46l-23.36-12.37c-8.25,14.05-18.94,25.28-32.07,33.67-13.13,8.4-28.56,12.6-46.27,12.6s-33.29-4.35-47.65-13.06c-14.36-8.71-25.66-20.69-33.9-35.96-7.02-13-10.82-27.66-11.42-43.98h198.8c.61-3.66,1.07-7.17,1.37-10.54.3-3.36.46-6.56.46-9.62,0-15.27-2.68-29.85-8.02-43.75-5.35-13.89-12.99-26.27-22.91-37.11ZM956.08,1094.31c7.94-15.12,18.78-27.03,32.53-35.73,13.74-8.7,28.86-13.06,45.35-13.06s31.23,4.2,44.21,12.6c12.98,8.4,22.98,19.7,30.01,33.9,5.73,11.58,8.51,24.34,8.35,38.25h-170.9c1.31-13.19,4.79-25.18,10.46-35.96Z"/><circle cx="574.64" cy="375" r="375"/><path d="M785.74,443.47c0,37.28-30.22,67.5-67.5,67.5-9.54,0-18.61-1.98-26.84-5.55-23.92-10.37-40.66-34.21-40.66-61.95v-241.87c0-4.81-1.97-9.19-5.14-12.36-3.17-3.17-7.55-5.14-12.36-5.14-9.62,0-17.5,7.87-17.5,17.5v284.37c0,.47-.01.94-.04,1.41v6.23c-.08,37.22-30.27,67.36-67.5,67.36-6.04,0-11.89-.79-17.45-2.28-28.09-7.49-48.96-32.65-50-62.85v-194.24c0-.43-.02-.86-.05-1.28-.31-4.3-2.2-8.19-5.09-11.08-3.17-3.17-7.55-5.14-12.36-5.14-9.62,0-17.5,7.87-17.5,17.5v284.37c0,13.75-11.25,25-25,25s-25-11.25-25-25v-284.37c.08-37.22,30.27-67.36,67.5-67.36,6.03,0,11.88.79,17.45,2.29,28.09,7.48,48.96,32.64,50,62.84v194.24c0,.43.02.86.05,1.28.31,4.3,2.2,8.19,5.09,11.08,3.17,3.17,7.55,5.14,12.36,5.14,9.62,0,17.5-7.87,17.5-17.5V209.24c0-.47,0-.94.04-1.41v-6.23c.08-37.22,30.27-67.36,67.5-67.36s67.42,30.14,67.5,67.36v176.66c5.58-1.49,11.45-2.29,17.5-2.29,37.28,0,67.5,30.22,67.5,67.5Z" fill="#fff"/></svg>