<?xml version="1.0" encoding="UTF-8"?><svg id="Camada_1" xmlns="http://www.w3.org/2000/svg" width="1197.79" height="396.85" viewBox="0 0 1197.79 396.85"><path d="M198.43,0C88.84,0,0,88.84,0,198.43s88.84,198.43,198.43,198.43,198.43-88.84,198.43-198.43S308.01,0,198.43,0ZM283.84,261.63c-22.05,0-39.99-17.94-39.99-39.99,0-1.12.05-2.23.14-3.32-.41-1.32-.62-2.65-.62-3.95v-111.98c0-5.15-4.19-9.35-9.34-9.35s-9.35,4.19-9.35,9.35v152.07c0,20.22-16.45,36.68-36.68,36.68s-36.68-16.45-36.68-36.68v-99.27c0-5.09-4.14-9.24-9.24-9.24s-9.23,4.14-9.23,9.24v151.7c0,7.52-6.12,13.65-13.65,13.65s-13.65-6.12-13.65-13.65v-151.7c0-20.14,16.39-36.53,36.53-36.53s36.53,16.39,36.53,36.53v99.27c0,5.17,4.21,9.38,9.38,9.38s9.38-4.21,9.38-9.38V102.38c0-20.2,16.44-36.64,36.64-36.64s36.64,16.44,36.64,36.64v81.51c4.22-1.49,8.64-2.24,13.17-2.24,22.05,0,39.99,17.94,39.99,39.99s-17.94,39.99-39.99,39.99Z" fill="#b3b3b3"/><path d="M830.73,241.54c0,8.65-1.62,16.35-4.87,23.11-3.24,6.76-7.88,12.03-13.92,15.82-6.04,3.78-13.2,5.68-21.49,5.68-7.57,0-14.37-1.62-20.41-4.87-6.04-3.24-10.81-7.88-14.33-13.92-3.52-6.04-5.27-13.29-5.27-21.76v-90.29h-16.22v91.64c0,11.36,2.43,21.13,7.3,29.33,4.87,8.21,11.4,14.56,19.6,19.06,8.2,4.5,17.17,6.76,26.9,6.76,11.35,0,21.17-2.83,29.47-8.52,5.6-3.83,9.95-8.58,13.25-14.1v19.38h16.22v-143.54h-16.22v86.24Z" fill="#b3b3b3"/><path d="M983.18,161.79c-10.64-6.48-22.71-9.73-36.22-9.73s-24.83,3.11-35.01,9.33c-8.66,5.28-15.48,12.19-20.68,20.54v-87.72h-16.22v204.64h16.22v-27.7c4.96,8.77,11.68,15.96,20.41,21.35,10.36,6.39,22.12,9.59,35.28,9.59s25.59-3.28,36.22-9.87c10.63-6.58,19.01-15.54,25.14-26.9,6.13-11.35,9.19-24.14,9.19-38.38s-3.07-27.03-9.19-38.39c-6.13-11.35-14.51-20.27-25.14-26.76ZM993.18,257.08c-4.69,8.92-11.08,15.95-19.19,21.08-8.11,5.14-17.3,7.71-27.57,7.71s-19.56-2.57-27.84-7.71c-8.29-5.13-14.87-12.17-19.73-21.08-4.87-8.92-7.3-18.97-7.3-30.14s2.43-21.17,7.3-30.01c4.87-8.83,11.44-15.82,19.73-20.95,8.29-5.14,17.57-7.71,27.84-7.71s19.46,2.57,27.57,7.71c8.11,5.13,14.5,12.12,19.19,20.95,4.69,8.83,7.03,18.83,7.03,30.01s-2.34,21.22-7.03,30.14Z" fill="#b3b3b3"/><path d="M679.85,160.96c-8.02-4.51-16.81-6.76-26.36-6.76-.77,0-1.5.13-2.26.16-.84-.04-1.64-.16-2.5-.16-11.17,0-21.36,3.2-30.55,9.59-5.66,3.94-10.19,8.74-13.71,14.31-3.52-5.56-8.05-10.36-13.71-14.31-9.19-6.39-19.38-9.59-30.55-9.59-.85,0-1.66.13-2.5.16-.76-.03-1.49-.16-2.26-.16-9.55,0-18.34,2.25-26.36,6.76-8.02,4.51-14.5,10.77-19.47,18.78-4.95,8.02-7.43,17.17-7.43,27.44v93.8h16.22v-89.21c0-8.66,1.76-16.09,5.27-22.31,3.52-6.22,8.16-10.99,13.92-14.33,5.77-3.33,12.26-5,19.46-5,7.75,0,14.56,1.89,20.41,5.68,5.86,3.78,10.45,9.01,13.79,15.68,3.34,6.67,5,14.33,5,22.98v86.51h16.38v-86.51c0-8.65,1.66-16.31,5-22.98,3.33-6.66,7.93-11.89,13.79-15.68,5.85-3.78,12.66-5.68,20.41-5.68,7.21,0,13.69,1.67,19.46,5,5.77,3.33,10.41,8.11,13.92,14.33,3.51,6.22,5.27,13.65,5.27,22.31v89.21h16.22v-93.8c0-10.27-2.48-19.42-7.43-27.44-4.96-8.02-11.45-14.28-19.47-18.78Z" fill="#b3b3b3"/><path d="M1150.71,174.86c-5.78-6.3-12.62-11.23-20.52-14.79-7.91-3.55-16.75-5.33-26.52-5.33-12.79,0-24.34,3.2-34.64,9.59-10.31,6.4-18.48,15.15-24.52,26.25-6.04,11.11-9.06,23.68-9.06,37.71s3.11,26.69,9.33,37.98c6.22,11.28,14.66,20.17,25.32,26.65,10.66,6.49,22.65,9.73,35.98,9.73,9.06,0,17.45-1.51,25.18-4.53,7.73-3.02,14.52-7.15,20.39-12.39,5.86-5.24,10.39-11.15,13.59-17.72l-13.59-7.2c-4.8,8.17-11.02,14.7-18.66,19.59-7.64,4.89-16.61,7.33-26.91,7.33s-19.37-2.53-27.71-7.59c-8.35-5.06-14.92-12.03-19.72-20.92-4.08-7.56-6.29-16.09-6.64-25.58h115.64c.35-2.13.62-4.17.8-6.13.17-1.95.27-3.82.27-5.6,0-8.88-1.56-17.36-4.66-25.45-3.11-8.08-7.55-15.28-13.32-21.59ZM1058.37,198.05c4.62-8.79,10.93-15.72,18.92-20.79,7.99-5.06,16.79-7.59,26.38-7.59s18.16,2.44,25.72,7.33c7.55,4.89,13.37,11.46,17.46,19.72,3.33,6.74,4.95,14.16,4.86,22.25h-99.41c.76-7.67,2.79-14.65,6.08-20.92Z" fill="#b3b3b3"/><path d="M1189.17,151.3c.51-.66.76-1.45.76-2.38,0-.78-.18-1.46-.53-2.05-.35-.59-.84-1.05-1.47-1.38-.63-.33-1.35-.49-2.18-.49h-4.35v12.97h1.13v-5.14h3.42l2.91,5.14h1.34l-3.06-5.33c.85-.24,1.52-.69,2.03-1.35ZM1182.53,146.05h3.26c.59,0,1.11.12,1.57.36.45.24.81.57,1.06.99.26.42.38.93.38,1.51s-.13,1.09-.38,1.52c-.26.44-.61.77-1.06,1.01-.45.24-.98.36-1.57.36h-3.26v-5.75Z" fill="#b3b3b3"/><path d="M1185.32,139.96c-6.88,0-12.47,5.6-12.47,12.47s5.6,12.47,12.47,12.47,12.47-5.6,12.47-12.47-5.6-12.47-12.47-12.47ZM1185.32,164.18c-6.47,0-11.74-5.27-11.74-11.74s5.27-11.74,11.74-11.74,11.74,5.27,11.74,11.74-5.27,11.74-11.74,11.74Z" fill="#b3b3b3"/></svg>