<?xml version="1.0" encoding="UTF-8"?><svg id="Camada_1" xmlns="http://www.w3.org/2000/svg" width="812" height="801.59" viewBox="0 0 812 801.59"><path d="M406,0c-127.93,0-231.64,103.71-231.64,231.64s103.71,231.64,231.64,231.64,231.64-103.71,231.64-231.64S533.93,0,406,0ZM505.72,305.43c-25.74,0-46.68-20.94-46.68-46.68,0-1.31.05-2.6.16-3.88-.48-1.54-.72-3.09-.72-4.62V119.52c0-6.02-4.89-10.91-10.91-10.91s-10.91,4.9-10.91,10.91v177.53c0,23.61-19.21,42.82-42.82,42.82s-42.82-19.21-42.82-42.82v-115.88c0-5.95-4.84-10.78-10.78-10.78s-10.78,4.84-10.78,10.78v177.1c0,8.78-7.15,15.93-15.93,15.93s-15.93-7.15-15.93-15.93v-177.1c0-23.52,19.13-42.65,42.64-42.65s42.65,19.13,42.65,42.65v115.88c0,6.04,4.91,10.95,10.95,10.95s10.95-4.91,10.95-10.95V119.52c0-23.59,19.19-42.77,42.78-42.77s42.77,19.19,42.77,42.77v95.16c4.93-1.74,10.08-2.62,15.38-2.62,25.74,0,46.68,20.94,46.68,46.68s-20.94,46.68-46.68,46.68Z" fill="#b3b3b3"/><path d="M383.49,730.26c0,10.1-1.89,19.09-5.68,26.98-3.78,7.89-9.2,14.05-16.25,18.46-7.05,4.42-15.41,6.63-25.09,6.63-8.84,0-16.78-1.89-23.83-5.68-7.05-3.78-12.62-9.2-16.72-16.25-4.1-7.05-6.16-15.52-6.16-25.41v-105.4h-18.94v106.98c0,13.26,2.84,24.67,8.52,34.24,5.68,9.58,13.3,16.99,22.88,22.25,9.57,5.25,20.04,7.89,31.4,7.89,13.25,0,24.72-3.31,34.4-9.94,6.54-4.48,11.61-10.02,15.46-16.46v22.62h18.94v-167.57h-18.94v100.67Z" fill="#b3b3b3"/><path d="M561.46,637.15c-12.42-7.57-26.51-11.35-42.29-11.35s-28.99,3.63-40.87,10.89c-10.11,6.17-18.07,14.24-24.14,23.98v-102.4h-18.94v238.9h18.94v-32.34c5.78,10.24,13.64,18.63,23.83,24.92,12.09,7.46,25.82,11.2,41.18,11.2s29.87-3.83,42.29-11.52c12.41-7.68,22.19-18.14,29.35-31.4,7.15-13.25,10.73-28.18,10.73-44.81s-3.58-31.56-10.73-44.82c-7.15-13.25-16.94-23.67-29.35-31.25ZM573.14,748.4c-5.47,10.41-12.94,18.62-22.4,24.61-9.47,6-20.2,9-32.19,9s-22.83-3-32.51-9c-9.68-5.99-17.36-14.2-23.04-24.61-5.68-10.42-8.52-22.14-8.52-35.19s2.84-24.72,8.52-35.03c5.68-10.3,13.36-18.46,23.04-24.46,9.68-6,20.51-9,32.51-9s22.72,3,32.19,9c9.47,5.99,16.93,14.15,22.4,24.46,5.47,10.31,8.21,21.99,8.21,35.03s-2.73,24.77-8.21,35.19Z" fill="#b3b3b3"/><path d="M207.36,636.19c-9.36-5.26-19.62-7.89-30.77-7.89-.9,0-1.75.15-2.63.19-.98-.04-1.92-.19-2.91-.19-13.04,0-24.93,3.74-35.66,11.2-6.61,4.6-11.89,10.21-16,16.7-4.11-6.49-9.39-12.1-16-16.7-10.73-7.46-22.62-11.2-35.66-11.2-.99,0-1.93.15-2.91.19-.89-.04-1.73-.19-2.63-.19-11.15,0-21.41,2.63-30.77,7.89-9.36,5.26-16.93,12.57-22.72,21.93-5.78,9.37-8.68,20.04-8.68,32.03v109.51h18.94v-104.14c0-10.11,2.05-18.78,6.15-26.04,4.1-7.26,9.52-12.83,16.25-16.72,6.74-3.89,14.31-5.84,22.72-5.84,9.05,0,16.99,2.21,23.83,6.63,6.84,4.42,12.2,10.52,16.09,18.3,3.89,7.79,5.84,16.73,5.84,26.83v100.99h19.12v-100.99c0-10.1,1.94-19.04,5.84-26.83,3.89-7.78,9.26-13.88,16.09-18.3,6.83-4.42,14.78-6.63,23.83-6.63,8.41,0,15.98,1.95,22.72,5.84,6.73,3.89,12.15,9.47,16.25,16.72,4.1,7.26,6.15,15.93,6.15,26.04v104.14h18.94v-109.51c0-11.99-2.89-22.67-8.68-32.03-5.79-9.36-13.36-16.67-22.72-21.93Z" fill="#b3b3b3"/><path d="M757.03,652.41c-6.74-7.36-14.73-13.11-23.96-17.27-9.23-4.15-19.55-6.22-30.95-6.22-14.93,0-28.42,3.73-40.44,11.2-12.03,7.47-21.57,17.68-28.62,30.64-7.05,12.96-10.58,27.64-10.58,44.02s3.63,31.16,10.89,44.33c7.26,13.17,17.11,23.54,29.56,31.11,12.44,7.57,26.44,11.36,42,11.36,10.58,0,20.38-1.76,29.4-5.29,9.02-3.52,16.95-8.35,23.8-14.47,6.84-6.11,12.13-13.01,15.87-20.69l-15.87-8.4c-5.6,9.54-12.86,17.16-21.78,22.87-8.92,5.71-19.39,8.56-31.42,8.56s-22.61-2.96-32.35-8.87c-9.75-5.91-17.42-14.05-23.02-24.42-4.77-8.83-7.35-18.78-7.76-29.87h135c.41-2.49.72-4.87.93-7.16.2-2.28.31-4.46.31-6.53,0-10.37-1.82-20.27-5.45-29.71-3.63-9.44-8.82-17.84-15.55-25.2ZM649.24,679.48c5.39-10.27,12.76-18.36,22.09-24.27,9.33-5.91,19.6-8.87,30.8-8.87s21.2,2.85,30.02,8.56c8.81,5.71,15.6,13.38,20.38,23.02,3.89,7.87,5.78,16.53,5.67,25.98h-116.06c.89-8.96,3.25-17.1,7.1-24.42Z" fill="#b3b3b3"/><path d="M801.94,624.91c.59-.77.88-1.69.88-2.77,0-.91-.21-1.71-.62-2.4-.41-.69-.99-1.23-1.72-1.61-.73-.38-1.58-.57-2.54-.57h-5.08v15.14h1.32v-6h4l3.4,6h1.57l-3.58-6.22c.99-.28,1.78-.81,2.37-1.58ZM794.19,618.78h3.8c.69,0,1.3.14,1.83.42.53.28.94.66,1.24,1.16.3.5.45,1.08.45,1.76s-.15,1.27-.45,1.78c-.3.51-.71.9-1.24,1.18-.53.28-1.14.42-1.83.42h-3.8v-6.71Z" fill="#b3b3b3"/><path d="M797.44,611.67c-8.03,0-14.56,6.53-14.56,14.56s6.53,14.56,14.56,14.56,14.56-6.53,14.56-14.56-6.53-14.56-14.56-14.56ZM797.44,639.94c-7.56,0-13.7-6.15-13.7-13.7s6.15-13.7,13.7-13.7,13.7,6.15,13.7,13.7-6.15,13.7-13.7,13.7Z" fill="#b3b3b3"/></svg>