<?xml version="1.0" encoding="UTF-8"?><svg id="Camada_1" xmlns="http://www.w3.org/2000/svg" width="1132" height="339.22" viewBox="0 0 1132 339.22"><path d="M534.62,239.78c0,14.08-2.64,26.61-7.92,37.61-5.28,11-12.83,19.58-22.66,25.74-9.83,6.16-21.49,9.24-34.98,9.24-12.32,0-23.39-2.63-33.22-7.92-9.83-5.28-17.6-12.82-23.31-22.65-5.72-9.83-8.58-21.63-8.58-35.42V99.43h-26.4v149.14c0,18.48,3.96,34.39,11.88,47.74,7.92,13.35,18.55,23.69,31.9,31.02,13.34,7.33,27.94,11,43.78,11,18.48,0,34.46-4.61,47.95-13.86,9.11-6.24,16.19-13.97,21.56-22.95v31.53h26.4V99.43h-26.4v140.35Z" fill="#b3b3b3"/><path d="M782.73,109.99c-17.31-10.55-36.96-15.83-58.95-15.83s-40.41,5.06-56.97,15.18c-14.09,8.6-25.19,19.85-33.66,33.42V0h-26.4v333.05h26.4v-45.08c8.06,14.28,19.01,25.97,33.22,34.74,16.86,10.4,36,15.61,57.41,15.61s41.64-5.35,58.95-16.06c17.3-10.7,30.94-25.29,40.92-43.78,9.97-18.47,14.96-39.29,14.96-62.47s-4.99-43.99-14.96-62.48c-9.97-18.47-23.62-33-40.92-43.56ZM799,265.07c-7.63,14.51-18.04,25.96-31.23,34.31-13.2,8.37-28.16,12.54-44.88,12.54s-31.83-4.18-45.32-12.54c-13.49-8.36-24.19-19.8-32.11-34.31-7.92-14.52-11.88-30.87-11.88-49.05s3.96-34.46,11.88-48.84c7.92-14.36,18.62-25.74,32.11-34.09,13.49-8.37,28.6-12.54,45.32-12.54s31.67,4.18,44.88,12.54c13.2,8.36,23.61,19.73,31.23,34.09,7.63,14.37,11.44,30.65,11.44,48.84s-3.81,34.53-11.44,49.05Z" fill="#b3b3b3"/><path d="M289.08,108.64c-13.05-7.34-27.35-11-42.9-11-1.25,0-2.43.22-3.67.26-1.36-.06-2.67-.26-4.06-.26-18.18,0-34.76,5.21-49.72,15.61-9.21,6.41-16.58,14.23-22.31,23.28-5.73-9.05-13.09-16.87-22.31-23.28-14.96-10.4-31.54-15.61-49.72-15.61-1.39,0-2.7.2-4.06.26-1.24-.05-2.42-.26-3.67-.26-15.54,0-29.84,3.66-42.9,11-13.05,7.34-23.61,17.52-31.68,30.57-8.06,13.06-12.1,27.94-12.1,44.66v152.66h26.4v-145.18c0-14.09,2.86-26.18,8.58-36.3,5.72-10.12,13.28-17.89,22.66-23.31,9.39-5.43,19.95-8.14,31.67-8.14,12.62,0,23.69,3.08,33.22,9.24,9.53,6.16,17.01,14.67,22.44,25.51,5.43,10.86,8.14,23.32,8.14,37.4v140.78h26.65v-140.78c0-14.08,2.71-26.54,8.14-37.4,5.43-10.84,12.9-19.35,22.44-25.51,9.53-6.16,20.6-9.24,33.22-9.24,11.73,0,22.28,2.71,31.67,8.14,9.38,5.43,16.94,13.2,22.66,23.31,5.72,10.12,8.58,22.21,8.58,36.3v145.18h26.4v-152.66c0-16.72-4.03-31.6-12.1-44.66-8.07-13.05-18.63-23.23-31.68-30.57Z" fill="#b3b3b3"/><path d="M1055.37,131.26c-9.4-10.26-20.53-18.28-33.4-24.07-12.87-5.78-27.26-8.68-43.15-8.68-20.82,0-39.62,5.2-56.38,15.61-16.77,10.41-30.08,24.65-39.9,42.72-9.83,18.07-14.75,38.53-14.75,61.37s5.06,43.44,15.18,61.8c10.12,18.36,23.85,32.82,41.2,43.37,17.35,10.56,36.86,15.83,58.55,15.83,14.74,0,28.41-2.46,40.98-7.37,12.58-4.91,23.64-11.64,33.18-20.17,9.54-8.52,16.91-18.14,22.12-28.84l-22.12-11.71c-7.81,13.3-17.93,23.93-30.36,31.88-12.43,7.96-27.04,11.93-43.8,11.93s-31.52-4.12-45.1-12.36c-13.6-8.24-24.29-19.58-32.1-34.05-6.65-12.3-10.24-26.19-10.81-41.64h188.2c.58-3.47,1.01-6.79,1.3-9.98.28-3.18.44-6.21.44-9.11,0-14.45-2.54-28.26-7.59-41.42-5.06-13.15-12.29-24.86-21.68-35.13ZM905.09,168.99c7.52-14.31,17.78-25.59,30.79-33.83,13.01-8.24,27.32-12.36,42.94-12.36s29.56,3.98,41.85,11.93c12.28,7.96,21.75,18.65,28.41,32.09,5.42,10.96,8.06,23.04,7.9,36.21h-161.79c1.24-12.49,4.53-23.84,9.9-34.04Z" fill="#b3b3b3"/><path d="M1117.98,92.92c.82-1.07,1.23-2.36,1.23-3.87,0-1.27-.29-2.38-.86-3.34-.58-.96-1.37-1.71-2.39-2.24-1.02-.53-2.2-.79-3.54-.79h-7.08v21.11h1.84v-8.36h5.57l4.74,8.36h2.18l-4.99-8.67c1.38-.4,2.48-1.13,3.3-2.2ZM1107.17,84.37h5.3c.96,0,1.81.19,2.55.58.74.39,1.31.93,1.73,1.62.42.69.62,1.51.62,2.45s-.21,1.77-.62,2.48c-.42.71-.99,1.26-1.73,1.64-.74.39-1.59.58-2.55.58h-5.3v-9.35Z" fill="#b3b3b3"/><path d="M1111.7,74.46c-11.19,0-20.3,9.11-20.3,20.3s9.11,20.3,20.3,20.3,20.3-9.11,20.3-20.3-9.11-20.3-20.3-20.3ZM1111.7,113.87c-10.53,0-19.11-8.57-19.11-19.11s8.57-19.11,19.11-19.11,19.11,8.57,19.11,19.11-8.57,19.11-19.11,19.11Z" fill="#b3b3b3"/></svg>