<?xml version="1.0" encoding="UTF-8"?><svg id="Camada_1" xmlns="http://www.w3.org/2000/svg" width="1080" height="1080" viewBox="0 0 1080 1080"><rect x=".5" y=".5" width="1079" height="1083" fill="#0e0e0e" stroke="#000" stroke-miterlimit="10"/><circle cx="540" cy="540" r="372" fill="#d40055"/><path d="M700.14,508.56c-8.51,0-16.77,1.41-24.69,4.2v-152.82c0-37.88-30.81-68.69-68.69-68.69s-68.7,30.81-68.7,68.69v285.1c0,9.7-7.89,17.59-17.59,17.59s-17.59-7.89-17.59-17.59v-186.1c0-37.76-30.72-68.49-68.49-68.49s-68.48,30.72-68.48,68.49v284.41c0,14.11,11.48,25.59,25.59,25.59s25.59-11.48,25.59-25.59v-284.41c0-9.55,7.77-17.32,17.31-17.32s17.32,7.77,17.32,17.32v186.1c0,37.91,30.85,68.76,68.76,68.76s68.76-30.85,68.76-68.76v-285.1c0-9.66,7.86-17.52,17.52-17.52s17.52,7.86,17.52,17.52v209.94c0,2.45.39,4.94,1.16,7.41-.17,2.06-.26,4.13-.26,6.23,0,41.34,33.63,74.97,74.97,74.97s74.97-33.63,74.97-74.97-33.63-74.97-74.97-74.97Z" fill="#fff"/></svg>