<?xml version="1.0" encoding="UTF-8"?><svg id="Camada_1" xmlns="http://www.w3.org/2000/svg" width="744" height="744" viewBox="0 0 744 744"><path d="M372,0C166.55,0,0,166.55,0,372s166.55,372,372,372,372-166.55,372-372S577.45,0,372,0ZM532.14,490.49c-41.34,0-74.97-33.63-74.97-74.97,0-2.1.09-4.18.26-6.23-.77-2.47-1.16-4.96-1.16-7.41v-209.94c0-9.66-7.86-17.52-17.52-17.52s-17.52,7.86-17.52,17.52v285.1c0,37.91-30.85,68.76-68.76,68.76s-68.76-30.85-68.76-68.76v-186.1c0-9.55-7.77-17.32-17.32-17.32s-17.31,7.77-17.31,17.32v284.41c0,14.11-11.48,25.59-25.59,25.59s-25.59-11.48-25.59-25.59v-284.41c0-37.76,30.72-68.49,68.48-68.49s68.49,30.72,68.49,68.49v186.1c0,9.7,7.89,17.59,17.59,17.59s17.59-7.89,17.59-17.59V191.94c0-37.88,30.82-68.69,68.7-68.69s68.69,30.82,68.69,68.69v152.82c7.92-2.79,16.19-4.2,24.69-4.2,41.34,0,74.97,33.63,74.97,74.97s-33.63,74.97-74.97,74.97Z" fill="#b3b3b3"/></svg>