<svg xmlns="http://www.w3.org/2000/svg" viewBox="0 0 48 48"><path fill="#FFC107" d="M43.611 20.083H42V20H24v8.857h11.895c-1.443 7.254-9.039 8.04-11.895 8.04-6.475 0-12.26-5.405-12.26-12.897 0-7.489 5.753-12.895 12.26-12.895 3.399 0 6.666 1.487 8.528 3.514l6.095-6.665C34.75 3.93 29.58 3 24 3 12.404 3 3 12.404 3 24s9.404 21 21 21c10.421 0 19.349-7.398 20.738-17.513.128-.868.205-1.758.205-2.668 0-1.879-.26-3.702-.738-5.464-.285-1.05-.624-2.062-1.594-3.272z"/><path fill="#FF3D00" d="M6.306 14.691l6.571 4.819C14.655 15.108 18.961 12 24 12c3.059 0 5.842 1.154 7.961 3.039l5.657-5.657C34.046 6.053 29.268 4 24 4 16.318 4 9.656 8.337 6.306 14.691z"/><path fill="#4CAF50" d="M24 44c5.166 0 9.86-1.977 13.409-5.192l-6.19-5.238C29.211 35.091 26.715 36 24 36c-5.202 0-9.619-3.317-11.283-7.946l-6.522 5.025C9.505 39.556 16.227 44 24 44z"/><path fill="#1976D2" d="M43.611 20.083L43.595 20H24v8.857h11.895c-.538 2.704-1.921 5.061-3.709 6.777l6.536 5.531C42.846 36.634 46 30.706 46 24c0-1.353-.13-2.673-.389-3.917z"/></svg>
