<svg xmlns="http://www.w3.org/2000/svg" viewBox="0 0 24 24" fill="none">
  <path
    d="M4.75 5.5h14.5A1.75 1.75 0 0 1 21 7.25v9.5A1.75 1.75 0 0 1 19.25 18.5H4.75A1.75 1.75 0 0 1 3 16.75v-9.5A1.75 1.75 0 0 1 4.75 5.5Z"
    stroke="#000"
    stroke-width="1.8"
    stroke-linejoin="round"
  />
  <path
    d="M6.5 8.5v6.75M9.25 8.5v6.75M12 8.5v6.75M14.75 8.5v6.75M17.5 8.5v6.75"
    stroke="#000"
    stroke-width="1.6"
    stroke-linecap="round"
  />
  <path
    d="M7.88 8.25h1.55v3.15H7.88zm3.35 0h1.55v3.15h-1.55zm3.35 0h1.55v3.15h-1.55z"
    fill="#000"
  />
</svg>
